<?xml version="1.0" standalone="no"?>
<!DOCTYPE svg PUBLIC "-//W3C//DTD SVG 20010904//EN"
 "http://www.w3.org/TR/2001/REC-SVG-20010904/DTD/svg10.dtd">
<svg version="1.0" xmlns="http://www.w3.org/2000/svg"
 width="225.000000pt" height="225.000000pt" viewBox="0 0 225.000000 225.000000"
 preserveAspectRatio="xMidYMid meet">
<metadata>
Created by potrace 1.14, written by Peter Selinger 2001-2017
</metadata>
<g transform="translate(0.000000,225.000000) scale(0.100000,-0.100000)"
fill="#000000" stroke="none">
<path d="M1040 1964 c-14 -2 -52 -9 -85 -15 -144 -26 -316 -118 -426 -228
-108 -109 -197 -272 -230 -426 -17 -77 -17 -263 0 -340 71 -328 328 -585 656
-656 77 -17 263 -17 340 0 277 60 515 261 613 519 43 111 56 183 56 307 0 124
-13 196 -55 306 -95 247 -307 436 -569 509 -72 20 -246 34 -300 24z m203 -425
c50 -14 100 -59 128 -117 21 -42 23 -63 25 -207 3 -166 -5 -210 -36 -220 -44
-14 -98 -138 -85 -195 9 -39 73 -96 185 -162 52 -31 108 -68 125 -81 36 -30
30 -40 -56 -93 -144 -87 -335 -128 -498 -106 -106 14 -226 56 -310 106 -86 53
-92 63 -56 93 17 13 73 50 125 81 113 67 176 123 185 163 12 52 -20 133 -73
186 l-48 48 -2 154 c-2 177 11 225 78 285 42 38 79 52 165 65 85 12 105 12
148 0z"/>
</g>
</svg>
